# xmcd
#
# Track frame offsets:
#	150
#	3147
#	40734
#	57805
#	84864
#	112812
#	130861
#	158946
#	175442
#	216006
#	236215
#	251449
#	272537
#	293368
#
# Disc length: 4314 seconds
#
# Revision: 1
# Processed by: cddbd v1.5.1PL0 Copyright (c) Steve Scherf et al.
# Submitted via: audiograbber 1.83.01
#
DISCID=ac10d80e
DTITLE=Ville Emard Blues Band - 1973-1975 au complet
DYEAR=2004
DGENRE=Québécois
TTITLE0=Intro
TTITLE1=Soumis - Octobre (au mois de mai)
TTITLE2=Ville Emard Blues
TTITLE3=Comme par magie
TTITLE4=That ain't no way to be
TTITLE5=Ste-Mélanie blues
TTITLE6=Ode à une belle inconnue
TTITLE7=A world of love (make some music)
TTITLE8=Kondy donky
TTITLE9=Va t'en vite
TTITLE10=Pixieland
TTITLE11=Indian giver God
TTITLE12=City music
TTITLE13=Poirots névrosés
EXTD=
EXTT0=
EXTT1=
EXTT2=
EXTT3=
EXTT4=
EXTT5=
EXTT6=
EXTT7=
EXTT8=
EXTT9=
EXTT10=
EXTT11=
EXTT12=
EXTT13=
PLAYORDER=
